%TF.GenerationSoftware,KiCad,Pcbnew,9.0.2*%
%TF.CreationDate,2025-06-12T22:51:23+08:00*%
%TF.ProjectId,MagFire,4d616746-6972-4652-9e6b-696361645f70,rev?*%
%TF.SameCoordinates,Original*%
%TF.FileFunction,Legend,Top*%
%TF.FilePolarity,Positive*%
%FSLAX46Y46*%
G04 Gerber Fmt 4.6, Leading zero omitted, Abs format (unit mm)*
G04 Created by KiCad (PCBNEW 9.0.2) date 2025-06-12 22:51:23*
%MOMM*%
%LPD*%
G01*
G04 APERTURE LIST*
%ADD10C,0.100000*%
%ADD11C,0.150000*%
%ADD12C,0.120000*%
G04 APERTURE END LIST*
D10*
X103583095Y-101732419D02*
X103583095Y-102541942D01*
X103583095Y-102541942D02*
X103630714Y-102637180D01*
X103630714Y-102637180D02*
X103678333Y-102684800D01*
X103678333Y-102684800D02*
X103773571Y-102732419D01*
X103773571Y-102732419D02*
X103964047Y-102732419D01*
X103964047Y-102732419D02*
X104059285Y-102684800D01*
X104059285Y-102684800D02*
X104106904Y-102637180D01*
X104106904Y-102637180D02*
X104154523Y-102541942D01*
X104154523Y-102541942D02*
X104154523Y-101732419D01*
X105154523Y-102732419D02*
X104583095Y-102732419D01*
X104868809Y-102732419D02*
X104868809Y-101732419D01*
X104868809Y-101732419D02*
X104773571Y-101875276D01*
X104773571Y-101875276D02*
X104678333Y-101970514D01*
X104678333Y-101970514D02*
X104583095Y-102018133D01*
D11*
X99681779Y-100144819D02*
X99681779Y-99144819D01*
X99681779Y-99144819D02*
X99919874Y-99144819D01*
X99919874Y-99144819D02*
X100062731Y-99192438D01*
X100062731Y-99192438D02*
X100157969Y-99287676D01*
X100157969Y-99287676D02*
X100205588Y-99382914D01*
X100205588Y-99382914D02*
X100253207Y-99573390D01*
X100253207Y-99573390D02*
X100253207Y-99716247D01*
X100253207Y-99716247D02*
X100205588Y-99906723D01*
X100205588Y-99906723D02*
X100157969Y-100001961D01*
X100157969Y-100001961D02*
X100062731Y-100097200D01*
X100062731Y-100097200D02*
X99919874Y-100144819D01*
X99919874Y-100144819D02*
X99681779Y-100144819D01*
X101253207Y-100049580D02*
X101205588Y-100097200D01*
X101205588Y-100097200D02*
X101062731Y-100144819D01*
X101062731Y-100144819D02*
X100967493Y-100144819D01*
X100967493Y-100144819D02*
X100824636Y-100097200D01*
X100824636Y-100097200D02*
X100729398Y-100001961D01*
X100729398Y-100001961D02*
X100681779Y-99906723D01*
X100681779Y-99906723D02*
X100634160Y-99716247D01*
X100634160Y-99716247D02*
X100634160Y-99573390D01*
X100634160Y-99573390D02*
X100681779Y-99382914D01*
X100681779Y-99382914D02*
X100729398Y-99287676D01*
X100729398Y-99287676D02*
X100824636Y-99192438D01*
X100824636Y-99192438D02*
X100967493Y-99144819D01*
X100967493Y-99144819D02*
X101062731Y-99144819D01*
X101062731Y-99144819D02*
X101205588Y-99192438D01*
X101205588Y-99192438D02*
X101253207Y-99240057D01*
X101824636Y-99573390D02*
X101729398Y-99525771D01*
X101729398Y-99525771D02*
X101681779Y-99478152D01*
X101681779Y-99478152D02*
X101634160Y-99382914D01*
X101634160Y-99382914D02*
X101634160Y-99335295D01*
X101634160Y-99335295D02*
X101681779Y-99240057D01*
X101681779Y-99240057D02*
X101729398Y-99192438D01*
X101729398Y-99192438D02*
X101824636Y-99144819D01*
X101824636Y-99144819D02*
X102015112Y-99144819D01*
X102015112Y-99144819D02*
X102110350Y-99192438D01*
X102110350Y-99192438D02*
X102157969Y-99240057D01*
X102157969Y-99240057D02*
X102205588Y-99335295D01*
X102205588Y-99335295D02*
X102205588Y-99382914D01*
X102205588Y-99382914D02*
X102157969Y-99478152D01*
X102157969Y-99478152D02*
X102110350Y-99525771D01*
X102110350Y-99525771D02*
X102015112Y-99573390D01*
X102015112Y-99573390D02*
X101824636Y-99573390D01*
X101824636Y-99573390D02*
X101729398Y-99621009D01*
X101729398Y-99621009D02*
X101681779Y-99668628D01*
X101681779Y-99668628D02*
X101634160Y-99763866D01*
X101634160Y-99763866D02*
X101634160Y-99954342D01*
X101634160Y-99954342D02*
X101681779Y-100049580D01*
X101681779Y-100049580D02*
X101729398Y-100097200D01*
X101729398Y-100097200D02*
X101824636Y-100144819D01*
X101824636Y-100144819D02*
X102015112Y-100144819D01*
X102015112Y-100144819D02*
X102110350Y-100097200D01*
X102110350Y-100097200D02*
X102157969Y-100049580D01*
X102157969Y-100049580D02*
X102205588Y-99954342D01*
X102205588Y-99954342D02*
X102205588Y-99763866D01*
X102205588Y-99763866D02*
X102157969Y-99668628D01*
X102157969Y-99668628D02*
X102110350Y-99621009D01*
X102110350Y-99621009D02*
X102015112Y-99573390D01*
X102538922Y-99478152D02*
X102777017Y-100144819D01*
X102777017Y-100144819D02*
X103015112Y-99478152D01*
X103396065Y-99763866D02*
X104157970Y-99763866D01*
X104634160Y-100144819D02*
X104634160Y-99144819D01*
X104634160Y-99144819D02*
X104872255Y-99144819D01*
X104872255Y-99144819D02*
X105015112Y-99192438D01*
X105015112Y-99192438D02*
X105110350Y-99287676D01*
X105110350Y-99287676D02*
X105157969Y-99382914D01*
X105157969Y-99382914D02*
X105205588Y-99573390D01*
X105205588Y-99573390D02*
X105205588Y-99716247D01*
X105205588Y-99716247D02*
X105157969Y-99906723D01*
X105157969Y-99906723D02*
X105110350Y-100001961D01*
X105110350Y-100001961D02*
X105015112Y-100097200D01*
X105015112Y-100097200D02*
X104872255Y-100144819D01*
X104872255Y-100144819D02*
X104634160Y-100144819D01*
X106205588Y-100049580D02*
X106157969Y-100097200D01*
X106157969Y-100097200D02*
X106015112Y-100144819D01*
X106015112Y-100144819D02*
X105919874Y-100144819D01*
X105919874Y-100144819D02*
X105777017Y-100097200D01*
X105777017Y-100097200D02*
X105681779Y-100001961D01*
X105681779Y-100001961D02*
X105634160Y-99906723D01*
X105634160Y-99906723D02*
X105586541Y-99716247D01*
X105586541Y-99716247D02*
X105586541Y-99573390D01*
X105586541Y-99573390D02*
X105634160Y-99382914D01*
X105634160Y-99382914D02*
X105681779Y-99287676D01*
X105681779Y-99287676D02*
X105777017Y-99192438D01*
X105777017Y-99192438D02*
X105919874Y-99144819D01*
X105919874Y-99144819D02*
X106015112Y-99144819D01*
X106015112Y-99144819D02*
X106157969Y-99192438D01*
X106157969Y-99192438D02*
X106205588Y-99240057D01*
X106538922Y-99144819D02*
X107157969Y-99144819D01*
X107157969Y-99144819D02*
X106824636Y-99525771D01*
X106824636Y-99525771D02*
X106967493Y-99525771D01*
X106967493Y-99525771D02*
X107062731Y-99573390D01*
X107062731Y-99573390D02*
X107110350Y-99621009D01*
X107110350Y-99621009D02*
X107157969Y-99716247D01*
X107157969Y-99716247D02*
X107157969Y-99954342D01*
X107157969Y-99954342D02*
X107110350Y-100049580D01*
X107110350Y-100049580D02*
X107062731Y-100097200D01*
X107062731Y-100097200D02*
X106967493Y-100144819D01*
X106967493Y-100144819D02*
X106681779Y-100144819D01*
X106681779Y-100144819D02*
X106586541Y-100097200D01*
X106586541Y-100097200D02*
X106538922Y-100049580D01*
X107634160Y-100144819D02*
X107824636Y-100144819D01*
X107824636Y-100144819D02*
X107919874Y-100097200D01*
X107919874Y-100097200D02*
X107967493Y-100049580D01*
X107967493Y-100049580D02*
X108062731Y-99906723D01*
X108062731Y-99906723D02*
X108110350Y-99716247D01*
X108110350Y-99716247D02*
X108110350Y-99335295D01*
X108110350Y-99335295D02*
X108062731Y-99240057D01*
X108062731Y-99240057D02*
X108015112Y-99192438D01*
X108015112Y-99192438D02*
X107919874Y-99144819D01*
X107919874Y-99144819D02*
X107729398Y-99144819D01*
X107729398Y-99144819D02*
X107634160Y-99192438D01*
X107634160Y-99192438D02*
X107586541Y-99240057D01*
X107586541Y-99240057D02*
X107538922Y-99335295D01*
X107538922Y-99335295D02*
X107538922Y-99573390D01*
X107538922Y-99573390D02*
X107586541Y-99668628D01*
X107586541Y-99668628D02*
X107634160Y-99716247D01*
X107634160Y-99716247D02*
X107729398Y-99763866D01*
X107729398Y-99763866D02*
X107919874Y-99763866D01*
X107919874Y-99763866D02*
X108015112Y-99716247D01*
X108015112Y-99716247D02*
X108062731Y-99668628D01*
X108062731Y-99668628D02*
X108110350Y-99573390D01*
X108729398Y-99144819D02*
X108824636Y-99144819D01*
X108824636Y-99144819D02*
X108919874Y-99192438D01*
X108919874Y-99192438D02*
X108967493Y-99240057D01*
X108967493Y-99240057D02*
X109015112Y-99335295D01*
X109015112Y-99335295D02*
X109062731Y-99525771D01*
X109062731Y-99525771D02*
X109062731Y-99763866D01*
X109062731Y-99763866D02*
X109015112Y-99954342D01*
X109015112Y-99954342D02*
X108967493Y-100049580D01*
X108967493Y-100049580D02*
X108919874Y-100097200D01*
X108919874Y-100097200D02*
X108824636Y-100144819D01*
X108824636Y-100144819D02*
X108729398Y-100144819D01*
X108729398Y-100144819D02*
X108634160Y-100097200D01*
X108634160Y-100097200D02*
X108586541Y-100049580D01*
X108586541Y-100049580D02*
X108538922Y-99954342D01*
X108538922Y-99954342D02*
X108491303Y-99763866D01*
X108491303Y-99763866D02*
X108491303Y-99525771D01*
X108491303Y-99525771D02*
X108538922Y-99335295D01*
X108538922Y-99335295D02*
X108586541Y-99240057D01*
X108586541Y-99240057D02*
X108634160Y-99192438D01*
X108634160Y-99192438D02*
X108729398Y-99144819D01*
X109396065Y-99478152D02*
X109634160Y-100144819D01*
X109634160Y-100144819D02*
X109872255Y-99478152D01*
X149431009Y-139785714D02*
X149478628Y-139642857D01*
X149478628Y-139642857D02*
X149526247Y-139595238D01*
X149526247Y-139595238D02*
X149621485Y-139547619D01*
X149621485Y-139547619D02*
X149764342Y-139547619D01*
X149764342Y-139547619D02*
X149859580Y-139595238D01*
X149859580Y-139595238D02*
X149907200Y-139642857D01*
X149907200Y-139642857D02*
X149954819Y-139738095D01*
X149954819Y-139738095D02*
X149954819Y-140119047D01*
X149954819Y-140119047D02*
X148954819Y-140119047D01*
X148954819Y-140119047D02*
X148954819Y-139785714D01*
X148954819Y-139785714D02*
X149002438Y-139690476D01*
X149002438Y-139690476D02*
X149050057Y-139642857D01*
X149050057Y-139642857D02*
X149145295Y-139595238D01*
X149145295Y-139595238D02*
X149240533Y-139595238D01*
X149240533Y-139595238D02*
X149335771Y-139642857D01*
X149335771Y-139642857D02*
X149383390Y-139690476D01*
X149383390Y-139690476D02*
X149431009Y-139785714D01*
X149431009Y-139785714D02*
X149431009Y-140119047D01*
X148954819Y-139261904D02*
X148954819Y-138690476D01*
X149954819Y-138976190D02*
X148954819Y-138976190D01*
X149954819Y-137833333D02*
X149954819Y-138404761D01*
X149954819Y-138119047D02*
X148954819Y-138119047D01*
X148954819Y-138119047D02*
X149097676Y-138214285D01*
X149097676Y-138214285D02*
X149192914Y-138309523D01*
X149192914Y-138309523D02*
X149240533Y-138404761D01*
X135957200Y-140333332D02*
X136004819Y-140190475D01*
X136004819Y-140190475D02*
X136004819Y-139952380D01*
X136004819Y-139952380D02*
X135957200Y-139857142D01*
X135957200Y-139857142D02*
X135909580Y-139809523D01*
X135909580Y-139809523D02*
X135814342Y-139761904D01*
X135814342Y-139761904D02*
X135719104Y-139761904D01*
X135719104Y-139761904D02*
X135623866Y-139809523D01*
X135623866Y-139809523D02*
X135576247Y-139857142D01*
X135576247Y-139857142D02*
X135528628Y-139952380D01*
X135528628Y-139952380D02*
X135481009Y-140142856D01*
X135481009Y-140142856D02*
X135433390Y-140238094D01*
X135433390Y-140238094D02*
X135385771Y-140285713D01*
X135385771Y-140285713D02*
X135290533Y-140333332D01*
X135290533Y-140333332D02*
X135195295Y-140333332D01*
X135195295Y-140333332D02*
X135100057Y-140285713D01*
X135100057Y-140285713D02*
X135052438Y-140238094D01*
X135052438Y-140238094D02*
X135004819Y-140142856D01*
X135004819Y-140142856D02*
X135004819Y-139904761D01*
X135004819Y-139904761D02*
X135052438Y-139761904D01*
X135004819Y-139428570D02*
X136004819Y-139190475D01*
X136004819Y-139190475D02*
X135290533Y-138999999D01*
X135290533Y-138999999D02*
X136004819Y-138809523D01*
X136004819Y-138809523D02*
X135004819Y-138571428D01*
X136004819Y-137666666D02*
X136004819Y-138238094D01*
X136004819Y-137952380D02*
X135004819Y-137952380D01*
X135004819Y-137952380D02*
X135147676Y-138047618D01*
X135147676Y-138047618D02*
X135242914Y-138142856D01*
X135242914Y-138142856D02*
X135290533Y-138238094D01*
X159166667Y-83857200D02*
X159309524Y-83904819D01*
X159309524Y-83904819D02*
X159547619Y-83904819D01*
X159547619Y-83904819D02*
X159642857Y-83857200D01*
X159642857Y-83857200D02*
X159690476Y-83809580D01*
X159690476Y-83809580D02*
X159738095Y-83714342D01*
X159738095Y-83714342D02*
X159738095Y-83619104D01*
X159738095Y-83619104D02*
X159690476Y-83523866D01*
X159690476Y-83523866D02*
X159642857Y-83476247D01*
X159642857Y-83476247D02*
X159547619Y-83428628D01*
X159547619Y-83428628D02*
X159357143Y-83381009D01*
X159357143Y-83381009D02*
X159261905Y-83333390D01*
X159261905Y-83333390D02*
X159214286Y-83285771D01*
X159214286Y-83285771D02*
X159166667Y-83190533D01*
X159166667Y-83190533D02*
X159166667Y-83095295D01*
X159166667Y-83095295D02*
X159214286Y-83000057D01*
X159214286Y-83000057D02*
X159261905Y-82952438D01*
X159261905Y-82952438D02*
X159357143Y-82904819D01*
X159357143Y-82904819D02*
X159595238Y-82904819D01*
X159595238Y-82904819D02*
X159738095Y-82952438D01*
X160071429Y-82904819D02*
X160309524Y-83904819D01*
X160309524Y-83904819D02*
X160500000Y-83190533D01*
X160500000Y-83190533D02*
X160690476Y-83904819D01*
X160690476Y-83904819D02*
X160928572Y-82904819D01*
X161261905Y-83000057D02*
X161309524Y-82952438D01*
X161309524Y-82952438D02*
X161404762Y-82904819D01*
X161404762Y-82904819D02*
X161642857Y-82904819D01*
X161642857Y-82904819D02*
X161738095Y-82952438D01*
X161738095Y-82952438D02*
X161785714Y-83000057D01*
X161785714Y-83000057D02*
X161833333Y-83095295D01*
X161833333Y-83095295D02*
X161833333Y-83190533D01*
X161833333Y-83190533D02*
X161785714Y-83333390D01*
X161785714Y-83333390D02*
X161214286Y-83904819D01*
X161214286Y-83904819D02*
X161833333Y-83904819D01*
X145333333Y-92454819D02*
X145000000Y-91978628D01*
X144761905Y-92454819D02*
X144761905Y-91454819D01*
X144761905Y-91454819D02*
X145142857Y-91454819D01*
X145142857Y-91454819D02*
X145238095Y-91502438D01*
X145238095Y-91502438D02*
X145285714Y-91550057D01*
X145285714Y-91550057D02*
X145333333Y-91645295D01*
X145333333Y-91645295D02*
X145333333Y-91788152D01*
X145333333Y-91788152D02*
X145285714Y-91883390D01*
X145285714Y-91883390D02*
X145238095Y-91931009D01*
X145238095Y-91931009D02*
X145142857Y-91978628D01*
X145142857Y-91978628D02*
X144761905Y-91978628D01*
X146285714Y-92454819D02*
X145714286Y-92454819D01*
X146000000Y-92454819D02*
X146000000Y-91454819D01*
X146000000Y-91454819D02*
X145904762Y-91597676D01*
X145904762Y-91597676D02*
X145809524Y-91692914D01*
X145809524Y-91692914D02*
X145714286Y-91740533D01*
X145833333Y-77954819D02*
X145357143Y-77954819D01*
X145357143Y-77954819D02*
X145357143Y-76954819D01*
X146690476Y-77954819D02*
X146119048Y-77954819D01*
X146404762Y-77954819D02*
X146404762Y-76954819D01*
X146404762Y-76954819D02*
X146309524Y-77097676D01*
X146309524Y-77097676D02*
X146214286Y-77192914D01*
X146214286Y-77192914D02*
X146119048Y-77240533D01*
X153902834Y-92609580D02*
X153855215Y-92657200D01*
X153855215Y-92657200D02*
X153712358Y-92704819D01*
X153712358Y-92704819D02*
X153617120Y-92704819D01*
X153617120Y-92704819D02*
X153474263Y-92657200D01*
X153474263Y-92657200D02*
X153379025Y-92561961D01*
X153379025Y-92561961D02*
X153331406Y-92466723D01*
X153331406Y-92466723D02*
X153283787Y-92276247D01*
X153283787Y-92276247D02*
X153283787Y-92133390D01*
X153283787Y-92133390D02*
X153331406Y-91942914D01*
X153331406Y-91942914D02*
X153379025Y-91847676D01*
X153379025Y-91847676D02*
X153474263Y-91752438D01*
X153474263Y-91752438D02*
X153617120Y-91704819D01*
X153617120Y-91704819D02*
X153712358Y-91704819D01*
X153712358Y-91704819D02*
X153855215Y-91752438D01*
X153855215Y-91752438D02*
X153902834Y-91800057D01*
X154855215Y-92704819D02*
X154283787Y-92704819D01*
X154569501Y-92704819D02*
X154569501Y-91704819D01*
X154569501Y-91704819D02*
X154474263Y-91847676D01*
X154474263Y-91847676D02*
X154379025Y-91942914D01*
X154379025Y-91942914D02*
X154283787Y-91990533D01*
%TO.C,U1*%
D10*
X74345000Y-77775000D02*
X134345000Y-77775000D01*
X134345000Y-127775000D01*
X74345000Y-127775000D01*
X74345000Y-77775000D01*
D12*
%TO.C,C1*%
X135215499Y-101125000D02*
X138715499Y-101125000D01*
X136965499Y-99375000D02*
X136965499Y-102875000D01*
X154069501Y-93420000D02*
X154069501Y-128580000D01*
X154109501Y-93420000D02*
X154109501Y-128580000D01*
X154149501Y-93420000D02*
X154149501Y-128580000D01*
X154189501Y-93420000D02*
X154189501Y-128580000D01*
X154229501Y-93421000D02*
X154229501Y-128579000D01*
X154269501Y-93421000D02*
X154269501Y-128579000D01*
X154309501Y-93422000D02*
X154309501Y-128578000D01*
X154349501Y-93422000D02*
X154349501Y-128578000D01*
X154389501Y-93423000D02*
X154389501Y-128577000D01*
X154429501Y-93424000D02*
X154429501Y-128576000D01*
X154469501Y-93425000D02*
X154469501Y-128575000D01*
X154509501Y-93425000D02*
X154509501Y-128575000D01*
X154549501Y-93427000D02*
X154549501Y-128573000D01*
X154589501Y-93428000D02*
X154589501Y-128572000D01*
X154629501Y-93429000D02*
X154629501Y-128571000D01*
X154669501Y-93430000D02*
X154669501Y-128570000D01*
X154709501Y-93432000D02*
X154709501Y-128568000D01*
X154749501Y-93433000D02*
X154749501Y-128567000D01*
X154789501Y-93435000D02*
X154789501Y-128565000D01*
X154829501Y-93436000D02*
X154829501Y-128564000D01*
X154869501Y-93438000D02*
X154869501Y-128562000D01*
X154909501Y-93440000D02*
X154909501Y-128560000D01*
X154949501Y-93442000D02*
X154949501Y-128558000D01*
X154989501Y-93444000D02*
X154989501Y-128556000D01*
X155029501Y-93446000D02*
X155029501Y-128554000D01*
X155069501Y-93448000D02*
X155069501Y-128552000D01*
X155109501Y-93451000D02*
X155109501Y-128549000D01*
X155149501Y-93453000D02*
X155149501Y-128547000D01*
X155189501Y-93456000D02*
X155189501Y-128544000D01*
X155229501Y-93458000D02*
X155229501Y-128542000D01*
X155269501Y-93461000D02*
X155269501Y-128539000D01*
X155309501Y-93464000D02*
X155309501Y-128536000D01*
X155349501Y-93467000D02*
X155349501Y-128533000D01*
X155389501Y-93470000D02*
X155389501Y-128530000D01*
X155429501Y-93473000D02*
X155429501Y-128527000D01*
X155469501Y-93476000D02*
X155469501Y-128524000D01*
X155509501Y-93479000D02*
X155509501Y-128521000D01*
X155549501Y-93482000D02*
X155549501Y-128518000D01*
X155589501Y-93486000D02*
X155589501Y-128514000D01*
X155629501Y-93489000D02*
X155629501Y-128511000D01*
X155669501Y-93493000D02*
X155669501Y-128507000D01*
X155709501Y-93496000D02*
X155709501Y-128504000D01*
X155749501Y-93500000D02*
X155749501Y-128500000D01*
X155789501Y-93504000D02*
X155789501Y-128496000D01*
X155829501Y-93508000D02*
X155829501Y-128492000D01*
X155869501Y-93512000D02*
X155869501Y-128488000D01*
X155909501Y-93516000D02*
X155909501Y-128484000D01*
X155949501Y-93521000D02*
X155949501Y-128479000D01*
X155989501Y-93525000D02*
X155989501Y-128475000D01*
X156029501Y-93529000D02*
X156029501Y-128471000D01*
X156069501Y-93534000D02*
X156069501Y-128466000D01*
X156109501Y-93538000D02*
X156109501Y-128462000D01*
X156149501Y-93543000D02*
X156149501Y-128457000D01*
X156189501Y-93548000D02*
X156189501Y-128452000D01*
X156229501Y-93553000D02*
X156229501Y-128447000D01*
X156269501Y-93558000D02*
X156269501Y-128442000D01*
X156309501Y-93563000D02*
X156309501Y-128437000D01*
X156349501Y-93568000D02*
X156349501Y-128432000D01*
X156389501Y-93573000D02*
X156389501Y-128427000D01*
X156429501Y-93579000D02*
X156429501Y-128421000D01*
X156469501Y-93584000D02*
X156469501Y-128416000D01*
X156509501Y-93590000D02*
X156509501Y-128410000D01*
X156549501Y-93595000D02*
X156549501Y-128405000D01*
X156589501Y-93601000D02*
X156589501Y-128399000D01*
X156629501Y-93607000D02*
X156629501Y-128393000D01*
X156669501Y-93613000D02*
X156669501Y-128387000D01*
X156709501Y-93619000D02*
X156709501Y-128381000D01*
X156749501Y-93625000D02*
X156749501Y-128375000D01*
X156789501Y-93631000D02*
X156789501Y-128369000D01*
X156829501Y-93638000D02*
X156829501Y-128362000D01*
X156869501Y-93644000D02*
X156869501Y-108760000D01*
X156869501Y-113240000D02*
X156869501Y-128356000D01*
X156909501Y-93650000D02*
X156909501Y-108760000D01*
X156909501Y-113240000D02*
X156909501Y-128350000D01*
X156949501Y-93657000D02*
X156949501Y-108760000D01*
X156949501Y-113240000D02*
X156949501Y-128343000D01*
X156989501Y-93664000D02*
X156989501Y-108760000D01*
X156989501Y-113240000D02*
X156989501Y-128336000D01*
X157029501Y-93670000D02*
X157029501Y-108760000D01*
X157029501Y-113240000D02*
X157029501Y-128330000D01*
X157069501Y-93677000D02*
X157069501Y-108760000D01*
X157069501Y-113240000D02*
X157069501Y-128323000D01*
X157109501Y-93684000D02*
X157109501Y-108760000D01*
X157109501Y-113240000D02*
X157109501Y-128316000D01*
X157149501Y-93691000D02*
X157149501Y-108760000D01*
X157149501Y-113240000D02*
X157149501Y-128309000D01*
X157189501Y-93698000D02*
X157189501Y-108760000D01*
X157189501Y-113240000D02*
X157189501Y-128302000D01*
X157229501Y-93706000D02*
X157229501Y-108760000D01*
X157229501Y-113240000D02*
X157229501Y-128294000D01*
X157269501Y-93713000D02*
X157269501Y-108760000D01*
X157269501Y-113240000D02*
X157269501Y-128287000D01*
X157309501Y-93720000D02*
X157309501Y-108760000D01*
X157309501Y-113240000D02*
X157309501Y-128280000D01*
X157349501Y-93728000D02*
X157349501Y-108760000D01*
X157349501Y-113240000D02*
X157349501Y-128272000D01*
X157389501Y-93736000D02*
X157389501Y-108760000D01*
X157389501Y-113240000D02*
X157389501Y-128264000D01*
X157429501Y-93743000D02*
X157429501Y-108760000D01*
X157429501Y-113240000D02*
X157429501Y-128257000D01*
X157469501Y-93751000D02*
X157469501Y-108760000D01*
X157469501Y-113240000D02*
X157469501Y-128249000D01*
X157509501Y-93759000D02*
X157509501Y-108760000D01*
X157509501Y-113240000D02*
X157509501Y-128241000D01*
X157549501Y-93767000D02*
X157549501Y-108760000D01*
X157549501Y-113240000D02*
X157549501Y-128233000D01*
X157589501Y-93775000D02*
X157589501Y-108760000D01*
X157589501Y-113240000D02*
X157589501Y-128225000D01*
X157629501Y-93783000D02*
X157629501Y-108760000D01*
X157629501Y-113240000D02*
X157629501Y-128217000D01*
X157669501Y-93792000D02*
X157669501Y-108760000D01*
X157669501Y-113240000D02*
X157669501Y-128208000D01*
X157709501Y-93800000D02*
X157709501Y-108760000D01*
X157709501Y-113240000D02*
X157709501Y-128200000D01*
X157749501Y-93809000D02*
X157749501Y-108760000D01*
X157749501Y-113240000D02*
X157749501Y-128191000D01*
X157789501Y-93817000D02*
X157789501Y-108760000D01*
X157789501Y-113240000D02*
X157789501Y-128183000D01*
X157829501Y-93826000D02*
X157829501Y-108760000D01*
X157829501Y-113240000D02*
X157829501Y-128174000D01*
X157869501Y-93835000D02*
X157869501Y-108760000D01*
X157869501Y-113240000D02*
X157869501Y-128165000D01*
X157909501Y-93844000D02*
X157909501Y-108760000D01*
X157909501Y-113240000D02*
X157909501Y-128156000D01*
X157949501Y-93853000D02*
X157949501Y-108760000D01*
X157949501Y-113240000D02*
X157949501Y-128147000D01*
X157989501Y-93862000D02*
X157989501Y-108760000D01*
X157989501Y-113240000D02*
X157989501Y-128138000D01*
X158029501Y-93871000D02*
X158029501Y-108760000D01*
X158029501Y-113240000D02*
X158029501Y-128129000D01*
X158069501Y-93880000D02*
X158069501Y-108760000D01*
X158069501Y-113240000D02*
X158069501Y-128120000D01*
X158109501Y-93889000D02*
X158109501Y-108760000D01*
X158109501Y-113240000D02*
X158109501Y-128111000D01*
X158149501Y-93899000D02*
X158149501Y-108760000D01*
X158149501Y-113240000D02*
X158149501Y-128101000D01*
X158189501Y-93908000D02*
X158189501Y-108760000D01*
X158189501Y-113240000D02*
X158189501Y-128092000D01*
X158229501Y-93918000D02*
X158229501Y-108760000D01*
X158229501Y-113240000D02*
X158229501Y-128082000D01*
X158269501Y-93928000D02*
X158269501Y-108760000D01*
X158269501Y-113240000D02*
X158269501Y-128072000D01*
X158309501Y-93938000D02*
X158309501Y-108760000D01*
X158309501Y-113240000D02*
X158309501Y-128062000D01*
X158349501Y-93948000D02*
X158349501Y-108760000D01*
X158349501Y-113240000D02*
X158349501Y-128052000D01*
X158389501Y-93958000D02*
X158389501Y-108760000D01*
X158389501Y-113240000D02*
X158389501Y-128042000D01*
X158429501Y-93968000D02*
X158429501Y-108760000D01*
X158429501Y-113240000D02*
X158429501Y-128032000D01*
X158469501Y-93978000D02*
X158469501Y-108760000D01*
X158469501Y-113240000D02*
X158469501Y-128022000D01*
X158509501Y-93989000D02*
X158509501Y-108760000D01*
X158509501Y-113240000D02*
X158509501Y-128011000D01*
X158549501Y-93999000D02*
X158549501Y-108760000D01*
X158549501Y-113240000D02*
X158549501Y-128001000D01*
X158589501Y-94010000D02*
X158589501Y-108760000D01*
X158589501Y-113240000D02*
X158589501Y-127990000D01*
X158629501Y-94020000D02*
X158629501Y-108760000D01*
X158629501Y-113240000D02*
X158629501Y-127980000D01*
X158669501Y-94031000D02*
X158669501Y-108760000D01*
X158669501Y-113240000D02*
X158669501Y-127969000D01*
X158709501Y-94042000D02*
X158709501Y-108760000D01*
X158709501Y-113240000D02*
X158709501Y-127958000D01*
X158749501Y-94053000D02*
X158749501Y-108760000D01*
X158749501Y-113240000D02*
X158749501Y-127947000D01*
X158789501Y-94064000D02*
X158789501Y-108760000D01*
X158789501Y-113240000D02*
X158789501Y-127936000D01*
X158829501Y-94075000D02*
X158829501Y-108760000D01*
X158829501Y-113240000D02*
X158829501Y-127925000D01*
X158869501Y-94086000D02*
X158869501Y-108760000D01*
X158869501Y-113240000D02*
X158869501Y-127914000D01*
X158909501Y-94098000D02*
X158909501Y-108760000D01*
X158909501Y-113240000D02*
X158909501Y-127902000D01*
X158949501Y-94109000D02*
X158949501Y-108760000D01*
X158949501Y-113240000D02*
X158949501Y-127891000D01*
X158989501Y-94121000D02*
X158989501Y-108760000D01*
X158989501Y-113240000D02*
X158989501Y-127879000D01*
X159029501Y-94133000D02*
X159029501Y-108760000D01*
X159029501Y-113240000D02*
X159029501Y-127867000D01*
X159069501Y-94144000D02*
X159069501Y-108760000D01*
X159069501Y-113240000D02*
X159069501Y-127856000D01*
X159109501Y-94156000D02*
X159109501Y-108760000D01*
X159109501Y-113240000D02*
X159109501Y-127844000D01*
X159149501Y-94168000D02*
X159149501Y-108760000D01*
X159149501Y-113240000D02*
X159149501Y-127832000D01*
X159189501Y-94180000D02*
X159189501Y-108760000D01*
X159189501Y-113240000D02*
X159189501Y-127820000D01*
X159229501Y-94192000D02*
X159229501Y-108760000D01*
X159229501Y-113240000D02*
X159229501Y-127808000D01*
X159269501Y-94205000D02*
X159269501Y-108760000D01*
X159269501Y-113240000D02*
X159269501Y-127795000D01*
X159309501Y-94217000D02*
X159309501Y-108760000D01*
X159309501Y-113240000D02*
X159309501Y-127783000D01*
X159349501Y-94230000D02*
X159349501Y-108760000D01*
X159349501Y-113240000D02*
X159349501Y-127770000D01*
X159389501Y-94242000D02*
X159389501Y-108760000D01*
X159389501Y-113240000D02*
X159389501Y-127758000D01*
X159429501Y-94255000D02*
X159429501Y-108760000D01*
X159429501Y-113240000D02*
X159429501Y-127745000D01*
X159469501Y-94268000D02*
X159469501Y-108760000D01*
X159469501Y-113240000D02*
X159469501Y-127732000D01*
X159509501Y-94281000D02*
X159509501Y-108760000D01*
X159509501Y-113240000D02*
X159509501Y-127719000D01*
X159549501Y-94294000D02*
X159549501Y-108760000D01*
X159549501Y-113240000D02*
X159549501Y-127706000D01*
X159589501Y-94307000D02*
X159589501Y-108760000D01*
X159589501Y-113240000D02*
X159589501Y-127693000D01*
X159629501Y-94320000D02*
X159629501Y-108760000D01*
X159629501Y-113240000D02*
X159629501Y-127680000D01*
X159669501Y-94334000D02*
X159669501Y-108760000D01*
X159669501Y-113240000D02*
X159669501Y-127666000D01*
X159709501Y-94347000D02*
X159709501Y-108760000D01*
X159709501Y-113240000D02*
X159709501Y-127653000D01*
X159749501Y-94361000D02*
X159749501Y-108760000D01*
X159749501Y-113240000D02*
X159749501Y-127639000D01*
X159789501Y-94374000D02*
X159789501Y-108760000D01*
X159789501Y-113240000D02*
X159789501Y-127626000D01*
X159829501Y-94388000D02*
X159829501Y-108760000D01*
X159829501Y-113240000D02*
X159829501Y-127612000D01*
X159869501Y-94402000D02*
X159869501Y-108760000D01*
X159869501Y-113240000D02*
X159869501Y-127598000D01*
X159909501Y-94416000D02*
X159909501Y-108760000D01*
X159909501Y-113240000D02*
X159909501Y-127584000D01*
X159949501Y-94430000D02*
X159949501Y-108760000D01*
X159949501Y-113240000D02*
X159949501Y-127570000D01*
X159989501Y-94444000D02*
X159989501Y-108760000D01*
X159989501Y-113240000D02*
X159989501Y-127556000D01*
X160029501Y-94459000D02*
X160029501Y-108760000D01*
X160029501Y-113240000D02*
X160029501Y-127541000D01*
X160069501Y-94473000D02*
X160069501Y-108760000D01*
X160069501Y-113240000D02*
X160069501Y-127527000D01*
X160109501Y-94488000D02*
X160109501Y-108760000D01*
X160109501Y-113240000D02*
X160109501Y-127512000D01*
X160149501Y-94502000D02*
X160149501Y-108760000D01*
X160149501Y-113240000D02*
X160149501Y-127498000D01*
X160189501Y-94517000D02*
X160189501Y-108760000D01*
X160189501Y-113240000D02*
X160189501Y-127483000D01*
X160229501Y-94532000D02*
X160229501Y-108760000D01*
X160229501Y-113240000D02*
X160229501Y-127468000D01*
X160269501Y-94547000D02*
X160269501Y-108760000D01*
X160269501Y-113240000D02*
X160269501Y-127453000D01*
X160309501Y-94562000D02*
X160309501Y-108760000D01*
X160309501Y-113240000D02*
X160309501Y-127438000D01*
X160349501Y-94577000D02*
X160349501Y-108760000D01*
X160349501Y-113240000D02*
X160349501Y-127423000D01*
X160389501Y-94592000D02*
X160389501Y-108760000D01*
X160389501Y-113240000D02*
X160389501Y-127408000D01*
X160429501Y-94608000D02*
X160429501Y-108760000D01*
X160429501Y-113240000D02*
X160429501Y-127392000D01*
X160469501Y-94623000D02*
X160469501Y-108760000D01*
X160469501Y-113240000D02*
X160469501Y-127377000D01*
X160509501Y-94639000D02*
X160509501Y-108760000D01*
X160509501Y-113240000D02*
X160509501Y-127361000D01*
X160549501Y-94655000D02*
X160549501Y-108760000D01*
X160549501Y-113240000D02*
X160549501Y-127345000D01*
X160589501Y-94671000D02*
X160589501Y-108760000D01*
X160589501Y-113240000D02*
X160589501Y-127329000D01*
X160629501Y-94687000D02*
X160629501Y-108760000D01*
X160629501Y-113240000D02*
X160629501Y-127313000D01*
X160669501Y-94703000D02*
X160669501Y-108760000D01*
X160669501Y-113240000D02*
X160669501Y-127297000D01*
X160709501Y-94719000D02*
X160709501Y-108760000D01*
X160709501Y-113240000D02*
X160709501Y-127281000D01*
X160749501Y-94735000D02*
X160749501Y-108760000D01*
X160749501Y-113240000D02*
X160749501Y-127265000D01*
X160789501Y-94752000D02*
X160789501Y-108760000D01*
X160789501Y-113240000D02*
X160789501Y-127248000D01*
X160829501Y-94768000D02*
X160829501Y-108760000D01*
X160829501Y-113240000D02*
X160829501Y-127232000D01*
X160869501Y-94785000D02*
X160869501Y-108760000D01*
X160869501Y-113240000D02*
X160869501Y-127215000D01*
X160909501Y-94802000D02*
X160909501Y-108760000D01*
X160909501Y-113240000D02*
X160909501Y-127198000D01*
X160949501Y-94819000D02*
X160949501Y-108760000D01*
X160949501Y-113240000D02*
X160949501Y-127181000D01*
X160989501Y-94836000D02*
X160989501Y-108760000D01*
X160989501Y-113240000D02*
X160989501Y-127164000D01*
X161029501Y-94853000D02*
X161029501Y-108760000D01*
X161029501Y-113240000D02*
X161029501Y-127147000D01*
X161069501Y-94870000D02*
X161069501Y-108760000D01*
X161069501Y-113240000D02*
X161069501Y-127130000D01*
X161109501Y-94888000D02*
X161109501Y-108760000D01*
X161109501Y-113240000D02*
X161109501Y-127112000D01*
X161149501Y-94905000D02*
X161149501Y-108760000D01*
X161149501Y-113240000D02*
X161149501Y-127095000D01*
X161189501Y-94923000D02*
X161189501Y-108760000D01*
X161189501Y-113240000D02*
X161189501Y-127077000D01*
X161229501Y-94940000D02*
X161229501Y-108760000D01*
X161229501Y-113240000D02*
X161229501Y-127060000D01*
X161269501Y-94958000D02*
X161269501Y-108760000D01*
X161269501Y-113240000D02*
X161269501Y-127042000D01*
X161309501Y-94976000D02*
X161309501Y-127024000D01*
X161349501Y-94994000D02*
X161349501Y-127006000D01*
X161389501Y-95012000D02*
X161389501Y-126988000D01*
X161429501Y-95031000D02*
X161429501Y-126969000D01*
X161469501Y-95049000D02*
X161469501Y-126951000D01*
X161509501Y-95068000D02*
X161509501Y-126932000D01*
X161549501Y-95087000D02*
X161549501Y-126913000D01*
X161589501Y-95105000D02*
X161589501Y-126895000D01*
X161629501Y-95124000D02*
X161629501Y-126876000D01*
X161669501Y-95143000D02*
X161669501Y-126857000D01*
X161709501Y-95163000D02*
X161709501Y-126837000D01*
X161749501Y-95182000D02*
X161749501Y-126818000D01*
X161789501Y-95201000D02*
X161789501Y-126799000D01*
X161829501Y-95221000D02*
X161829501Y-126779000D01*
X161869501Y-95240000D02*
X161869501Y-126760000D01*
X161909501Y-95260000D02*
X161909501Y-126740000D01*
X161949501Y-95280000D02*
X161949501Y-126720000D01*
X161989501Y-95300000D02*
X161989501Y-126700000D01*
X162029501Y-95320000D02*
X162029501Y-126680000D01*
X162069501Y-95341000D02*
X162069501Y-126659000D01*
X162109501Y-95361000D02*
X162109501Y-126639000D01*
X162149501Y-95382000D02*
X162149501Y-126618000D01*
X162189501Y-95403000D02*
X162189501Y-126597000D01*
X162229501Y-95423000D02*
X162229501Y-126577000D01*
X162269501Y-95444000D02*
X162269501Y-126556000D01*
X162309501Y-95465000D02*
X162309501Y-126535000D01*
X162349501Y-95487000D02*
X162349501Y-126513000D01*
X162389501Y-95508000D02*
X162389501Y-126492000D01*
X162429501Y-95530000D02*
X162429501Y-126470000D01*
X162469501Y-95551000D02*
X162469501Y-126449000D01*
X162509501Y-95573000D02*
X162509501Y-126427000D01*
X162549501Y-95595000D02*
X162549501Y-126405000D01*
X162589501Y-95617000D02*
X162589501Y-126383000D01*
X162629501Y-95639000D02*
X162629501Y-126361000D01*
X162669501Y-95661000D02*
X162669501Y-126339000D01*
X162709501Y-95684000D02*
X162709501Y-126316000D01*
X162749501Y-95706000D02*
X162749501Y-126294000D01*
X162789501Y-95729000D02*
X162789501Y-126271000D01*
X162829501Y-95752000D02*
X162829501Y-126248000D01*
X162869501Y-95775000D02*
X162869501Y-126225000D01*
X162909501Y-95798000D02*
X162909501Y-126202000D01*
X162949501Y-95821000D02*
X162949501Y-126179000D01*
X162989501Y-95845000D02*
X162989501Y-126155000D01*
X163029501Y-95868000D02*
X163029501Y-126132000D01*
X163069501Y-95892000D02*
X163069501Y-126108000D01*
X163109501Y-95916000D02*
X163109501Y-126084000D01*
X163149501Y-95940000D02*
X163149501Y-126060000D01*
X163189501Y-95964000D02*
X163189501Y-126036000D01*
X163229501Y-95988000D02*
X163229501Y-126012000D01*
X163269501Y-96013000D02*
X163269501Y-125987000D01*
X163309501Y-96037000D02*
X163309501Y-125963000D01*
X163349501Y-96062000D02*
X163349501Y-125938000D01*
X163389501Y-96087000D02*
X163389501Y-125913000D01*
X163429501Y-96112000D02*
X163429501Y-125888000D01*
X163469501Y-96137000D02*
X163469501Y-125863000D01*
X163509501Y-96162000D02*
X163509501Y-125838000D01*
X163549501Y-96188000D02*
X163549501Y-125812000D01*
X163589501Y-96213000D02*
X163589501Y-125787000D01*
X163629501Y-96239000D02*
X163629501Y-125761000D01*
X163669501Y-96265000D02*
X163669501Y-125735000D01*
X163709501Y-96291000D02*
X163709501Y-125709000D01*
X163749501Y-96317000D02*
X163749501Y-125683000D01*
X163789501Y-96344000D02*
X163789501Y-125656000D01*
X163829501Y-96370000D02*
X163829501Y-125630000D01*
X163869501Y-96397000D02*
X163869501Y-125603000D01*
X163909501Y-96424000D02*
X163909501Y-125576000D01*
X163949501Y-96451000D02*
X163949501Y-125549000D01*
X163989501Y-96478000D02*
X163989501Y-125522000D01*
X164029501Y-96505000D02*
X164029501Y-125495000D01*
X164069501Y-96533000D02*
X164069501Y-125467000D01*
X164109501Y-96560000D02*
X164109501Y-125440000D01*
X164149501Y-96588000D02*
X164149501Y-125412000D01*
X164189501Y-96616000D02*
X164189501Y-125384000D01*
X164229501Y-96644000D02*
X164229501Y-125356000D01*
X164269501Y-96673000D02*
X164269501Y-125327000D01*
X164309501Y-96701000D02*
X164309501Y-125299000D01*
X164349501Y-96730000D02*
X164349501Y-125270000D01*
X164389501Y-96758000D02*
X164389501Y-125242000D01*
X164429501Y-96787000D02*
X164429501Y-125213000D01*
X164469501Y-96817000D02*
X164469501Y-125183000D01*
X164509501Y-96846000D02*
X164509501Y-125154000D01*
X164549501Y-96875000D02*
X164549501Y-125125000D01*
X164589501Y-96905000D02*
X164589501Y-125095000D01*
X164629501Y-96935000D02*
X164629501Y-125065000D01*
X164669501Y-96965000D02*
X164669501Y-125035000D01*
X164709501Y-96995000D02*
X164709501Y-125005000D01*
X164749501Y-97026000D02*
X164749501Y-124974000D01*
X164789501Y-97056000D02*
X164789501Y-124944000D01*
X164829501Y-97087000D02*
X164829501Y-124913000D01*
X164869501Y-97118000D02*
X164869501Y-124882000D01*
X164909501Y-97149000D02*
X164909501Y-124851000D01*
X164949501Y-97180000D02*
X164949501Y-124820000D01*
X164989501Y-97212000D02*
X164989501Y-124788000D01*
X165029501Y-97244000D02*
X165029501Y-124756000D01*
X165069501Y-97275000D02*
X165069501Y-124725000D01*
X165109501Y-97307000D02*
X165109501Y-124693000D01*
X165149501Y-97340000D02*
X165149501Y-124660000D01*
X165189501Y-97372000D02*
X165189501Y-124628000D01*
X165229501Y-97405000D02*
X165229501Y-124595000D01*
X165269501Y-97438000D02*
X165269501Y-124562000D01*
X165309501Y-97471000D02*
X165309501Y-124529000D01*
X165349501Y-97504000D02*
X165349501Y-124496000D01*
X165389501Y-97537000D02*
X165389501Y-124463000D01*
X165429501Y-97571000D02*
X165429501Y-124429000D01*
X165469501Y-97605000D02*
X165469501Y-124395000D01*
X165509501Y-97639000D02*
X165509501Y-124361000D01*
X165549501Y-97673000D02*
X165549501Y-124327000D01*
X165589501Y-97708000D02*
X165589501Y-124292000D01*
X165629501Y-97742000D02*
X165629501Y-124258000D01*
X165669501Y-97777000D02*
X165669501Y-124223000D01*
X165709501Y-97812000D02*
X165709501Y-124188000D01*
X165749501Y-97848000D02*
X165749501Y-124152000D01*
X165789501Y-97883000D02*
X165789501Y-124117000D01*
X165829501Y-97919000D02*
X165829501Y-124081000D01*
X165869501Y-97955000D02*
X165869501Y-124045000D01*
X165909501Y-97991000D02*
X165909501Y-124009000D01*
X165949501Y-98027000D02*
X165949501Y-123973000D01*
X165989501Y-98064000D02*
X165989501Y-123936000D01*
X166029501Y-98101000D02*
X166029501Y-123899000D01*
X166069501Y-98138000D02*
X166069501Y-123862000D01*
X166109501Y-98175000D02*
X166109501Y-123825000D01*
X166149501Y-98213000D02*
X166149501Y-123787000D01*
X166189501Y-98251000D02*
X166189501Y-123749000D01*
X166229501Y-98289000D02*
X166229501Y-123711000D01*
X166269501Y-98327000D02*
X166269501Y-123673000D01*
X166309501Y-98365000D02*
X166309501Y-123635000D01*
X166349501Y-98404000D02*
X166349501Y-123596000D01*
X166389501Y-98443000D02*
X166389501Y-123557000D01*
X166429501Y-98482000D02*
X166429501Y-123518000D01*
X166469501Y-98522000D02*
X166469501Y-123478000D01*
X166509501Y-98562000D02*
X166509501Y-123438000D01*
X166549501Y-98602000D02*
X166549501Y-123398000D01*
X166589501Y-98642000D02*
X166589501Y-123358000D01*
X166629501Y-98682000D02*
X166629501Y-123318000D01*
X166669501Y-98723000D02*
X166669501Y-123277000D01*
X166709501Y-98764000D02*
X166709501Y-123236000D01*
X166749501Y-98806000D02*
X166749501Y-123194000D01*
X166789501Y-98847000D02*
X166789501Y-123153000D01*
X166829501Y-98889000D02*
X166829501Y-123111000D01*
X166869501Y-98931000D02*
X166869501Y-123069000D01*
X166909501Y-98974000D02*
X166909501Y-123026000D01*
X166949501Y-99016000D02*
X166949501Y-122984000D01*
X166989501Y-99059000D02*
X166989501Y-122941000D01*
X167029501Y-99103000D02*
X167029501Y-122897000D01*
X167069501Y-99146000D02*
X167069501Y-122854000D01*
X167109501Y-99190000D02*
X167109501Y-122810000D01*
X167149501Y-99234000D02*
X167149501Y-122766000D01*
X167189501Y-99279000D02*
X167189501Y-122721000D01*
X167229501Y-99323000D02*
X167229501Y-122677000D01*
X167269501Y-99368000D02*
X167269501Y-122632000D01*
X167309501Y-99414000D02*
X167309501Y-122586000D01*
X167349501Y-99460000D02*
X167349501Y-122540000D01*
X167389501Y-99506000D02*
X167389501Y-122494000D01*
X167429501Y-99552000D02*
X167429501Y-122448000D01*
X167469501Y-99599000D02*
X167469501Y-122401000D01*
X167509501Y-99646000D02*
X167509501Y-122354000D01*
X167549501Y-99693000D02*
X167549501Y-122307000D01*
X167589501Y-99741000D02*
X167589501Y-122259000D01*
X167629501Y-99789000D02*
X167629501Y-122211000D01*
X167669501Y-99837000D02*
X167669501Y-122163000D01*
X167709501Y-99886000D02*
X167709501Y-122114000D01*
X167749501Y-99935000D02*
X167749501Y-122065000D01*
X167789501Y-99984000D02*
X167789501Y-122016000D01*
X167829501Y-100034000D02*
X167829501Y-121966000D01*
X167869501Y-100084000D02*
X167869501Y-121916000D01*
X167909501Y-100135000D02*
X167909501Y-121865000D01*
X167949501Y-100186000D02*
X167949501Y-121814000D01*
X167989501Y-100237000D02*
X167989501Y-121763000D01*
X168029501Y-100289000D02*
X168029501Y-121711000D01*
X168069501Y-100341000D02*
X168069501Y-121659000D01*
X168109501Y-100394000D02*
X168109501Y-121606000D01*
X168149501Y-100447000D02*
X168149501Y-121553000D01*
X168189501Y-100500000D02*
X168189501Y-121500000D01*
X168229501Y-100554000D02*
X168229501Y-121446000D01*
X168269501Y-100608000D02*
X168269501Y-121392000D01*
X168309501Y-100663000D02*
X168309501Y-121337000D01*
X168349501Y-100718000D02*
X168349501Y-121282000D01*
X168389501Y-100773000D02*
X168389501Y-121227000D01*
X168429501Y-100829000D02*
X168429501Y-121171000D01*
X168469501Y-100886000D02*
X168469501Y-121114000D01*
X168509501Y-100943000D02*
X168509501Y-121057000D01*
X168549501Y-101000000D02*
X168549501Y-121000000D01*
X168589501Y-101058000D02*
X168589501Y-120942000D01*
X168629501Y-101117000D02*
X168629501Y-120883000D01*
X168669501Y-101176000D02*
X168669501Y-120824000D01*
X168709501Y-101235000D02*
X168709501Y-120765000D01*
X168749501Y-101295000D02*
X168749501Y-120705000D01*
X168789501Y-101356000D02*
X168789501Y-120644000D01*
X168829501Y-101417000D02*
X168829501Y-120583000D01*
X168869501Y-101478000D02*
X168869501Y-120522000D01*
X168909501Y-101541000D02*
X168909501Y-120459000D01*
X168949501Y-101603000D02*
X168949501Y-120397000D01*
X168989501Y-101667000D02*
X168989501Y-120333000D01*
X169029501Y-101731000D02*
X169029501Y-120269000D01*
X169069501Y-101795000D02*
X169069501Y-120205000D01*
X169109501Y-101861000D02*
X169109501Y-120139000D01*
X169149501Y-101926000D02*
X169149501Y-120074000D01*
X169189501Y-101993000D02*
X169189501Y-120007000D01*
X169229501Y-102060000D02*
X169229501Y-119940000D01*
X169269501Y-102128000D02*
X169269501Y-119872000D01*
X169309501Y-102197000D02*
X169309501Y-119803000D01*
X169349501Y-102266000D02*
X169349501Y-119734000D01*
X169389501Y-102336000D02*
X169389501Y-119664000D01*
X169429501Y-102407000D02*
X169429501Y-119593000D01*
X169469501Y-102478000D02*
X169469501Y-119522000D01*
X169509501Y-102551000D02*
X169509501Y-119449000D01*
X169549501Y-102624000D02*
X169549501Y-119376000D01*
X169589501Y-102698000D02*
X169589501Y-119302000D01*
X169629501Y-102773000D02*
X169629501Y-119227000D01*
X169669501Y-102848000D02*
X169669501Y-119152000D01*
X169709501Y-102925000D02*
X169709501Y-119075000D01*
X169749501Y-103002000D02*
X169749501Y-118998000D01*
X169789501Y-103081000D02*
X169789501Y-118919000D01*
X169829501Y-103160000D02*
X169829501Y-118840000D01*
X169869501Y-103241000D02*
X169869501Y-118759000D01*
X169909501Y-103323000D02*
X169909501Y-118677000D01*
X169949501Y-103405000D02*
X169949501Y-118595000D01*
X169989501Y-103489000D02*
X169989501Y-118511000D01*
X170029501Y-103574000D02*
X170029501Y-118426000D01*
X170069501Y-103660000D02*
X170069501Y-118340000D01*
X170109501Y-103747000D02*
X170109501Y-118253000D01*
X170149501Y-103836000D02*
X170149501Y-118164000D01*
X170189501Y-103926000D02*
X170189501Y-118074000D01*
X170229501Y-104017000D02*
X170229501Y-117983000D01*
X170269501Y-104110000D02*
X170269501Y-117890000D01*
X170309501Y-104204000D02*
X170309501Y-117796000D01*
X170349501Y-104300000D02*
X170349501Y-117700000D01*
X170389501Y-104398000D02*
X170389501Y-117602000D01*
X170429501Y-104497000D02*
X170429501Y-117503000D01*
X170469501Y-104598000D02*
X170469501Y-117402000D01*
X170509501Y-104700000D02*
X170509501Y-117300000D01*
X170549501Y-104805000D02*
X170549501Y-117195000D01*
X170589501Y-104912000D02*
X170589501Y-117088000D01*
X170629501Y-105021000D02*
X170629501Y-116979000D01*
X170669501Y-105132000D02*
X170669501Y-116868000D01*
X170709501Y-105246000D02*
X170709501Y-116754000D01*
X170749501Y-105362000D02*
X170749501Y-116638000D01*
X170789501Y-105481000D02*
X170789501Y-116519000D01*
X170829501Y-105602000D02*
X170829501Y-116398000D01*
X170869501Y-105727000D02*
X170869501Y-116273000D01*
X170909501Y-105856000D02*
X170909501Y-116144000D01*
X170949501Y-105987000D02*
X170949501Y-116013000D01*
X170989501Y-106123000D02*
X170989501Y-115877000D01*
X171029501Y-106263000D02*
X171029501Y-115737000D01*
X171069501Y-106407000D02*
X171069501Y-115593000D01*
X171109501Y-106556000D02*
X171109501Y-115444000D01*
X171149501Y-106711000D02*
X171149501Y-115289000D01*
X171189501Y-106872000D02*
X171189501Y-115128000D01*
X171229501Y-107040000D02*
X171229501Y-114960000D01*
X171269501Y-107216000D02*
X171269501Y-114784000D01*
X171309501Y-107400000D02*
X171309501Y-114600000D01*
X171349501Y-107595000D02*
X171349501Y-114405000D01*
X171389501Y-107802000D02*
X171389501Y-114198000D01*
X171429501Y-108024000D02*
X171429501Y-113976000D01*
X171469501Y-108264000D02*
X171469501Y-113736000D01*
X171509501Y-108528000D02*
X171509501Y-113472000D01*
X171549501Y-108823000D02*
X171549501Y-113177000D01*
X171589501Y-109165000D02*
X171589501Y-112835000D01*
X171629501Y-109587000D02*
X171629501Y-112413000D01*
X171669501Y-110201000D02*
X171669501Y-111799000D01*
X171689501Y-111000000D02*
G75*
G02*
X136449501Y-111000000I-17620000J0D01*
G01*
X136449501Y-111000000D02*
G75*
G02*
X171689501Y-111000000I17620000J0D01*
G01*
%TD*%
M02*
