%TF.GenerationSoftware,KiCad,Pcbnew,9.0.2*%
%TF.CreationDate,2025-06-12T22:51:23+08:00*%
%TF.ProjectId,MagFire,4d616746-6972-4652-9e6b-696361645f70,rev?*%
%TF.SameCoordinates,Original*%
%TF.FileFunction,Copper,L2,Bot*%
%TF.FilePolarity,Positive*%
%FSLAX46Y46*%
G04 Gerber Fmt 4.6, Leading zero omitted, Abs format (unit mm)*
G04 Created by KiCad (PCBNEW 9.0.2) date 2025-06-12 22:51:23*
%MOMM*%
%LPD*%
G01*
G04 APERTURE LIST*
G04 Aperture macros list*
%AMRoundRect*
0 Rectangle with rounded corners*
0 $1 Rounding radius*
0 $2 $3 $4 $5 $6 $7 $8 $9 X,Y pos of 4 corners*
0 Add a 4 corners polygon primitive as box body*
4,1,4,$2,$3,$4,$5,$6,$7,$8,$9,$2,$3,0*
0 Add four circle primitives for the rounded corners*
1,1,$1+$1,$2,$3*
1,1,$1+$1,$4,$5*
1,1,$1+$1,$6,$7*
1,1,$1+$1,$8,$9*
0 Add four rect primitives between the rounded corners*
20,1,$1+$1,$2,$3,$4,$5,0*
20,1,$1+$1,$4,$5,$6,$7,0*
20,1,$1+$1,$6,$7,$8,$9,0*
20,1,$1+$1,$8,$9,$2,$3,0*%
G04 Aperture macros list end*
%TA.AperFunction,ComponentPad*%
%ADD10C,3.500000*%
%TD*%
%TA.AperFunction,ComponentPad*%
%ADD11RoundRect,0.525000X-1.225000X-1.225000X1.225000X-1.225000X1.225000X1.225000X-1.225000X1.225000X0*%
%TD*%
%TA.AperFunction,ComponentPad*%
%ADD12RoundRect,0.250002X1.499998X-1.499998X1.499998X1.499998X-1.499998X1.499998X-1.499998X-1.499998X0*%
%TD*%
%TA.AperFunction,ComponentPad*%
%ADD13RoundRect,0.250002X1.499998X1.499998X-1.499998X1.499998X-1.499998X-1.499998X1.499998X-1.499998X0*%
%TD*%
%TA.AperFunction,ComponentPad*%
%ADD14RoundRect,0.250002X-1.499998X-1.499998X1.499998X-1.499998X1.499998X1.499998X-1.499998X1.499998X0*%
%TD*%
%TA.AperFunction,ComponentPad*%
%ADD15RoundRect,0.250000X-1.750000X-1.750000X1.750000X-1.750000X1.750000X1.750000X-1.750000X1.750000X0*%
%TD*%
%TA.AperFunction,ComponentPad*%
%ADD16C,4.000000*%
%TD*%
%TA.AperFunction,Conductor*%
%ADD17C,5.000000*%
%TD*%
%TA.AperFunction,Conductor*%
%ADD18C,0.200000*%
%TD*%
G04 APERTURE END LIST*
D10*
%TO.P,U1,1,IN+*%
%TO.N,Net-(U1-IN+)*%
X76845000Y-132775000D03*
D11*
%TO.P,U1,2,IN-*%
%TO.N,Net-(BT1--)*%
X84345000Y-132775000D03*
D10*
%TO.P,U1,3,OUT+*%
%TO.N,Net-(U1-OUT+)*%
X106845000Y-132775000D03*
D11*
%TO.P,U1,4,OUT*%
%TO.N,Net-(U1-OUT)*%
X114345000Y-132775000D03*
%TO.P,U1,5,OUT-*%
%TO.N,unconnected-(U1-OUT--Pad5)*%
X121845000Y-132775000D03*
%TD*%
D12*
%TO.P,BT1,1,+*%
%TO.N,Net-(BT1-+)*%
X146500000Y-142500000D03*
D10*
%TO.P,BT1,2,-*%
%TO.N,Net-(BT1--)*%
X146500000Y-135500000D03*
%TD*%
D12*
%TO.P,SW1,1,1*%
%TO.N,Net-(BT1-+)*%
X138500000Y-142500000D03*
D10*
%TO.P,SW1,2,2*%
%TO.N,Net-(U1-IN+)*%
X138500000Y-135500000D03*
%TD*%
D13*
%TO.P,SW2,1,1*%
%TO.N,Net-(U1-OUT)*%
X164000000Y-80500000D03*
D10*
%TO.P,SW2,2,2*%
%TO.N,Net-(L1-Pad1)*%
X157000000Y-80500000D03*
%TD*%
D14*
%TO.P,R1,1*%
%TO.N,Net-(L1-Pad2)*%
X142000000Y-89000000D03*
D10*
%TO.P,R1,2*%
%TO.N,Net-(U1-OUT+)*%
X149000000Y-89000000D03*
%TD*%
D13*
%TO.P,L1,1,1*%
%TO.N,Net-(L1-Pad1)*%
X149000000Y-80500000D03*
D10*
%TO.P,L1,2,2*%
%TO.N,Net-(L1-Pad2)*%
X142000000Y-80500000D03*
%TD*%
D15*
%TO.P,C1,1*%
%TO.N,Net-(U1-OUT+)*%
X149069501Y-111000000D03*
D16*
%TO.P,C1,2*%
%TO.N,Net-(U1-OUT)*%
X159069501Y-111000000D03*
%TD*%
D17*
%TO.N,Net-(U1-OUT)*%
X156000000Y-120500000D02*
X159069501Y-117430499D01*
X125500000Y-138000000D02*
X143000000Y-120500000D01*
X116000000Y-138000000D02*
X125500000Y-138000000D01*
X114345000Y-136345000D02*
X116000000Y-138000000D01*
X114345000Y-132775000D02*
X114345000Y-136345000D01*
X143000000Y-120500000D02*
X156000000Y-120500000D01*
X159069501Y-117430499D02*
X159069501Y-111000000D01*
%TO.N,Net-(U1-OUT+)*%
X114500000Y-118000000D02*
X106845000Y-125655000D01*
X133500000Y-118000000D02*
X114500000Y-118000000D01*
X106845000Y-125655000D02*
X106845000Y-132775000D01*
%TO.N,Net-(U1-OUT)*%
X159069501Y-99430499D02*
X159069501Y-111000000D01*
X164000000Y-94500000D02*
X159069501Y-99430499D01*
X164000000Y-80500000D02*
X164000000Y-94500000D01*
D18*
%TO.N,Net-(U1-OUT+)*%
X149069501Y-89069501D02*
X149000000Y-89000000D01*
D17*
X149069501Y-111000000D02*
X149069501Y-89069501D01*
X149069501Y-111000000D02*
X140500000Y-111000000D01*
X140500000Y-111000000D02*
X133500000Y-118000000D01*
%TD*%
M02*
